<svg width="13" height="13" viewBox="0 0 13 13" fill="none" xmlns="http://www.w3.org/2000/svg">
<path d="M10.8875 5.25V10.875H2.12495V2.125H7.74995V0.875H2.13745C1.44995 0.875 0.887451 1.4375 0.887451 2.125V10.875C0.887451 11.5625 1.44995 12.125 2.13745 12.125H10.8875C11.575 12.125 12.1375 11.5625 12.1375 10.875V5.25H10.8875ZM9.62495 5.25L10.2125 3.9625L11.5 3.375L10.2125 2.7875L9.62495 1.5L9.03745 2.7875L7.74995 3.375L9.03745 3.9625L9.62495 5.25ZM7.2812 5.71875L6.49995 4L5.7187 5.71875L3.99995 6.5L5.7187 7.28125L6.49995 9L7.2812 7.28125L8.99995 6.5L7.2812 5.71875Z" fill="#012B51"/>
</svg>
