<svg width="11" height="15" viewBox="0 0 11 15" fill="none" xmlns="http://www.w3.org/2000/svg">
<path d="M5.5 3.40909V5.45455L8.25 2.72727L5.5 0V2.04545C2.46125 2.04545 0 4.48636 0 7.5C0 8.57045 0.31625 9.56591 0.8525 10.4045L1.85625 9.40909C1.54687 8.84318 1.375 8.18864 1.375 7.5C1.375 5.24318 3.22438 3.40909 5.5 3.40909ZM10.1475 4.59545L9.14375 5.59091C9.44625 6.16364 9.625 6.81136 9.625 7.5C9.625 9.75682 7.77562 11.5909 5.5 11.5909V9.54545L2.75 12.2727L5.5 15V12.9545C8.53875 12.9545 11 10.5136 11 7.5C11 6.42955 10.6838 5.43409 10.1475 4.59545Z" fill="#012B51"/>
</svg>
