<svg width="12" height="14" viewBox="0 0 12 14" fill="none" xmlns="http://www.w3.org/2000/svg">
<path d="M2.74005 5.68675L1.80005 4.74008C1.20005 5.51341 0.826712 6.40675 0.713379 7.33341H2.06005C2.15338 6.75341 2.38671 6.18675 2.74005 5.68675ZM2.06005 8.66675H0.713379C0.826712 9.59341 1.19338 10.4867 1.79338 11.2601L2.73338 10.3134C2.38671 9.81341 2.15338 9.25341 2.06005 8.66675ZM2.73338 12.2134C3.50671 12.8134 4.40671 13.1734 5.33338 13.2867V11.9334C4.75338 11.8334 4.19338 11.6067 3.69338 11.2467L2.73338 12.2134ZM6.66671 2.71341V0.666748L3.63338 3.70008L6.66671 6.66675V4.06008C8.56005 4.38008 10 6.02008 10 8.00008C10 9.98008 8.56005 11.6201 6.66671 11.9401V13.2867C9.30005 12.9601 11.3334 10.7201 11.3334 8.00008C11.3334 5.28008 9.30005 3.04008 6.66671 2.71341Z" fill="#012B51"/>
</svg>
